<svg width="64" height="64" viewBox="0 0 64 64" fill="none" xmlns="http://www.w3.org/2000/svg">
<g clip-path="url(#clip0_501_252)">
<path d="M54.035 58.3C54.035 55.22 45.725 50.85 35.47 50.85C25.215 50.85 16.905 55.22 16.905 58.3C16.905 58.3 20.26 62 35.47 62C50.68 62 54.035 58.3 54.035 58.3V58.3Z" fill="#D0D0D0"/>
<path d="M20.46 54.325C21.845 53.63 23.27 53.02 24.735 52.525L25.875 44.57H33.45L33.97 51.29C36.02 52.21 38.375 54.905 38.085 56.83C37.665 59.63 32.845 60.13 25.22 59.31C23.29 59.1 19.15 57.885 17.545 56.71C17.545 56.715 18.78 55.165 20.46 54.325Z" fill="#D0D0D0"/>
<path d="M27.39 46.67L32.15 45.55L32.545 49.745L38.68 50.3L38.085 56.83L26.51 54.11L27.39 46.67Z" fill="#D0D0D0"/>
<path d="M5.38502 45.67C8.64501 49.635 32.69 48.69 43.91 40.29C55.13 31.89 62.195 9.29 58.645 4.55L5.38502 45.67V45.67Z" fill="#D0D0D0"/>
<path d="M5.28498 45.59C4.87498 45.04 4.75498 44.58 4.87998 43.915L17.54 42.415C17.54 42.415 26.83 44.81 39.525 40.92L39.32 43.06C27.2 49.025 8.40498 49.76 5.28498 45.59V45.59Z" fill="#D0D0D0"/>
<path d="M4.40253 44.6976C0.381332 39.3257 9.22714 25.9091 24.1602 14.7309C39.0932 3.55259 54.4587 -1.15438 58.4799 4.21754C62.5011 9.58947 53.6553 23.006 38.7222 34.1843C23.7892 45.3626 8.42373 50.0695 4.40253 44.6976Z" fill="#FAFAFA"/>
<path d="M17.545 41.485C12.915 36.855 20.78 22.26 34.32 8.13C45.52 1.935 55.38 0.0750005 58.48 4.22C62.5 9.595 53.655 23.01 38.725 34.19C33.955 37.76 28.445 41 23.97 43.13C21.14 43.665 18.905 42.845 17.545 41.485Z" fill="#E0E0E0"/>
<path d="M35.47 54.175L43.6 54.45V35.88C41.435 34.98 38.68 35.695 38.085 39.655C37.76 41.815 35.47 54.175 35.47 54.175Z" fill="#D0D0D0"/>
<path d="M24.16 14.735C39.095 3.555 54.46 -1.15 58.48 4.22C62.5 9.59 53.655 23.01 38.72 34.185C23.785 45.365 8.42003 50.07 4.40003 44.7C0.380034 39.33 9.22503 25.915 24.16 14.735V14.735ZM5.50003 43.365C8.96003 47.99 23.27 43.125 37.46 32.5C51.65 21.875 60.35 9.52 56.89 4.895C53.43 0.269998 39.12 5.135 24.93 15.76C10.74 26.385 2.04003 38.74 5.50003 43.365Z" fill="#D0D0D0"/>
<path d="M38.085 56.83L46.55 54.54L45.185 38.895C45.03 36.795 44.145 35.79 42.93 35.78C41.415 35.77 39.96 36.67 39.72 39.095C39.505 41.27 38.085 56.83 38.085 56.83V56.83Z" fill="#D0D0D0"/>
<path opacity="0.7" d="M42.93 40.755C42.2534 40.755 41.705 40.023 41.705 39.12C41.705 38.217 42.2534 37.485 42.93 37.485C43.6065 37.485 44.155 38.217 44.155 39.12C44.155 40.023 43.6065 40.755 42.93 40.755Z" fill="#D0D0D0"/>
<path d="M18.28 9.96001L27.915 22.92" stroke="#D0D0D0" stroke-width="0.84375" stroke-miterlimit="10" stroke-linecap="round"/>
<path d="M48.81 22.195L18.845 9.495M17.37 10.44L20.535 42.61" stroke="#D0D0D0" stroke-width="0.84375" stroke-miterlimit="10" stroke-linecap="round"/>
<path d="M18.215 10.025C19.675 9.005 19.475 8.16 19.155 7.75L16.23 4.02C15.91 3.61 15.1 3.3 13.86 4.31C12.825 5.15 12.795 6.055 13.115 6.465L16.04 10.195C16.36 10.605 17.23 10.715 18.215 10.025Z" fill="#D0D0D0"/>
<path d="M18.18 8.66999C18.58 8.36999 18.075 7.12999 17.13 6.02499C16.185 4.91999 15.46 4.23999 15.065 4.53499C14.665 4.83499 15.005 5.85999 16.025 7.10499C17.04 8.35499 18.015 8.79499 18.18 8.66999ZM56.89 4.89499C56.775 4.74499 55.79 3.71999 56.39 3.28999C57.04 2.82999 57.975 3.37499 58.79 4.69499C60.435 7.34499 58.605 11.575 58.215 12.475C55.48 18.795 48.37 26.955 38.715 34.185C34.665 37.215 30.59 39.765 26.71 41.775C25 42.66 23.635 43.53 21.835 43.33C20.795 43.215 20.545 42.53 21.425 42.09C26.145 39.72 32.29 36.37 37.46 32.5C51.65 21.88 60.35 9.51999 56.89 4.89499Z" fill="#D0D0D0"/>
</g>
<defs>
<clipPath id="clip0_501_252">
<rect width="64" height="64" fill="white" transform="matrix(-1 0 0 1 64 0)"/>
</clipPath>
</defs>
</svg>
