<?xml version="1.0" standalone="no"?>
<!DOCTYPE svg PUBLIC "-//W3C//DTD SVG 20010904//EN"
 "http://www.w3.org/TR/2001/REC-SVG-20010904/DTD/svg10.dtd">
<svg version="1.0" xmlns="http://www.w3.org/2000/svg"
 width="700.000000pt" height="700.000000pt" viewBox="0 0 700.000000 700.000000"
 preserveAspectRatio="xMidYMid meet">
<metadata>
Created by potrace 1.14, written by Peter Selinger 2001-2017
</metadata>
<g transform="translate(0.000000,700.000000) scale(0.100000,-0.100000)"
fill="#000000" stroke="none">
<path d="M1120 6778 c-202 -15 -361 -78 -469 -187 -123 -124 -169 -273 -165
-541 1 -89 13 -270 18 -280 2 -3 6 -28 10 -57 5 -41 32 -191 51 -283 28 -132
142 -526 175 -605 5 -11 27 -72 50 -135 124 -338 320 -743 508 -1050 202 -329
385 -566 623 -804 76 -76 137 -141 135 -145 -2 -3 -7 -42 -10 -86 -4 -44 -9
-96 -11 -115 -2 -19 -7 -71 -10 -115 -3 -44 -8 -96 -10 -115 -2 -19 -7 -73
-10 -120 -4 -47 -8 -101 -10 -120 -2 -19 -6 -69 -10 -110 -3 -41 -8 -91 -10
-110 -2 -19 -7 -71 -10 -115 -4 -44 -9 -98 -11 -120 -2 -22 -6 -76 -10 -120
-3 -44 -7 -89 -9 -100 -1 -11 -3 -36 -4 -56 l-1 -36 -137 -53 c-252 -97 -445
-212 -573 -340 -76 -76 -113 -136 -125 -202 -7 -35 -5 -38 39 -70 104 -74 249
-138 433 -192 132 -39 305 -80 388 -90 11 -2 34 -6 50 -9 17 -3 54 -9 84 -12
30 -4 63 -9 75 -11 12 -2 41 -6 66 -8 25 -3 68 -8 95 -11 109 -12 240 -20 450
-30 113 -5 572 -5 685 0 148 6 306 16 346 20 21 2 71 7 109 10 39 3 79 8 90
10 11 3 46 7 77 10 80 7 272 41 408 71 243 54 530 168 625 248 l40 34 -13 47
c-27 100 -147 235 -296 333 -102 66 -335 176 -474 222 -75 25 -77 28 -87 95
-3 23 -7 50 -9 60 -2 11 -7 43 -10 70 -4 28 -8 61 -11 75 -4 26 -10 63 -21
145 -3 28 -10 71 -14 98 -4 26 -4 47 0 47 4 0 30 -4 58 -10 28 -5 73 -12 99
-15 26 -3 59 -8 73 -10 38 -7 88 -14 155 -20 33 -4 80 -8 105 -11 295 -31 766
-36 970 -9 19 2 58 7 85 11 185 22 375 74 496 135 88 44 227 169 279 249 106
165 112 405 18 700 -17 52 -34 100 -38 105 -4 6 -11 21 -15 34 -15 48 -89 199
-153 311 -174 306 -415 626 -732 974 -69 76 -355 361 -454 453 l-88 83 7 72
c4 40 8 80 10 88 2 8 6 53 9 100 4 47 9 101 11 120 8 67 21 200 30 295 5 56
10 105 20 200 19 185 17 180 33 180 20 0 62 47 193 215 79 102 150 192 158
200 23 24 39 72 34 104 -20 123 -196 254 -301 222 -31 -9 -79 -57 -137 -137
-11 -15 -74 -96 -140 -180 -115 -147 -120 -156 -121 -202 l0 -49 -245 -104
c-134 -57 -253 -108 -264 -113 -11 -5 -101 -43 -199 -85 l-180 -76 -165 109
c-585 383 -1189 687 -1696 852 -297 97 -540 150 -755 165 -149 9 -159 10 -260
2z m3703 -970 c-6 -7 -90 -120 -187 -250 -97 -131 -178 -238 -181 -238 -3 0
-58 40 -122 88 -65 49 -130 97 -145 106 -15 10 -26 22 -23 26 3 4 31 18 62 31
32 12 81 32 108 45 28 12 142 61 255 108 113 47 212 90 220 95 19 11 26 5 13
-11z m182 -90 c-3 -35 -8 -79 -10 -98 -3 -19 -7 -62 -10 -95 -3 -33 -7 -80
-10 -105 -6 -52 -12 -117 -21 -210 -10 -108 -11 -122 -19 -197 -4 -40 -10 -73
-14 -73 -3 0 -17 10 -31 23 -14 13 -81 69 -150 126 -69 57 -131 109 -139 116
-12 12 62 119 343 491 17 23 38 51 46 63 8 12 16 21 18 21 2 0 1 -28 -3 -62z
m-1825 -3628 c85 -31 154 -61 153 -66 0 -5 -4 -49 -7 -99 -7 -97 -15 -200 -25
-309 -7 -78 4 -71 -126 -81 -132 -11 -141 -10 -142 8 0 6 -8 51 -17 100 -16
89 -43 238 -52 291 -3 16 -6 32 -8 35 -2 3 -7 28 -10 54 -4 26 -11 71 -16 99
-6 28 -10 55 -10 59 0 5 24 -1 53 -12 28 -12 122 -47 207 -79z"/>
</g>
</svg>
